<svg xmlns="http://www.w3.org/2000/svg" width="760" height="290" viewBox="0 0 760 290" role="img" aria-labelledby="t d">
<title id="t">A branch is a moving pointer</title>
<desc id="d">main has commits A, B, C. A branch called feature starts at B and has its own commits D and E. HEAD points at feature, so the next commit goes there.</desc>
<defs><marker id="ah-f8fafc" viewBox="0 0 10 10" refX="9" refY="5" markerWidth="7" markerHeight="7" orient="auto-start-reverse"><path d="M0 0L10 5L0 10z" fill="#f8fafc"/></marker><marker id="ah-cbd5e1" viewBox="0 0 10 10" refX="9" refY="5" markerWidth="7" markerHeight="7" orient="auto-start-reverse"><path d="M0 0L10 5L0 10z" fill="#cbd5e1"/></marker><marker id="ah-0f172a" viewBox="0 0 10 10" refX="9" refY="5" markerWidth="7" markerHeight="7" orient="auto-start-reverse"><path d="M0 0L10 5L0 10z" fill="#0f172a"/></marker><marker id="ah-64748b" viewBox="0 0 10 10" refX="9" refY="5" markerWidth="7" markerHeight="7" orient="auto-start-reverse"><path d="M0 0L10 5L0 10z" fill="#64748b"/></marker><marker id="ah-2563eb" viewBox="0 0 10 10" refX="9" refY="5" markerWidth="7" markerHeight="7" orient="auto-start-reverse"><path d="M0 0L10 5L0 10z" fill="#2563eb"/></marker><marker id="ah-db2777" viewBox="0 0 10 10" refX="9" refY="5" markerWidth="7" markerHeight="7" orient="auto-start-reverse"><path d="M0 0L10 5L0 10z" fill="#db2777"/></marker><marker id="ah-16a34a" viewBox="0 0 10 10" refX="9" refY="5" markerWidth="7" markerHeight="7" orient="auto-start-reverse"><path d="M0 0L10 5L0 10z" fill="#16a34a"/></marker><marker id="ah-dc2626" viewBox="0 0 10 10" refX="9" refY="5" markerWidth="7" markerHeight="7" orient="auto-start-reverse"><path d="M0 0L10 5L0 10z" fill="#dc2626"/></marker><marker id="ah-d97706" viewBox="0 0 10 10" refX="9" refY="5" markerWidth="7" markerHeight="7" orient="auto-start-reverse"><path d="M0 0L10 5L0 10z" fill="#d97706"/></marker><marker id="ah-94a3b8" viewBox="0 0 10 10" refX="9" refY="5" markerWidth="7" markerHeight="7" orient="auto-start-reverse"><path d="M0 0L10 5L0 10z" fill="#94a3b8"/></marker><marker id="ah-e2e8f0" viewBox="0 0 10 10" refX="9" refY="5" markerWidth="7" markerHeight="7" orient="auto-start-reverse"><path d="M0 0L10 5L0 10z" fill="#e2e8f0"/></marker></defs>
<rect width="760" height="290" rx="14" fill="#f8fafc" stroke="#cbd5e1"/>
<circle cx="110" cy="90" r="17" fill="#2563eb" stroke="#2563eb" stroke-width="2"/><text x="110" y="95" font-family="ui-monospace, 'SF Mono', Menlo, Consolas, monospace" font-size="13" fill="#ffffff" font-weight="700" text-anchor="middle">A</text>
<line x1="251" y1="90" x2="131" y2="90" stroke="#94a3b8" stroke-width="2" marker-end="url(#ah-94a3b8)"/>
<circle cx="270" cy="90" r="17" fill="#2563eb" stroke="#2563eb" stroke-width="2"/><text x="270" y="95" font-family="ui-monospace, 'SF Mono', Menlo, Consolas, monospace" font-size="13" fill="#ffffff" font-weight="700" text-anchor="middle">B</text>
<line x1="411" y1="90" x2="291" y2="90" stroke="#94a3b8" stroke-width="2" marker-end="url(#ah-94a3b8)"/>
<circle cx="430" cy="90" r="17" fill="#2563eb" stroke="#2563eb" stroke-width="2"/><text x="430" y="95" font-family="ui-monospace, 'SF Mono', Menlo, Consolas, monospace" font-size="13" fill="#ffffff" font-weight="700" text-anchor="middle">C</text>
<rect x="402.6" y="28" width="54.8" height="24" rx="12" fill="#2563eb"/><text x="430" y="45" font-family="ui-monospace, 'SF Mono', Menlo, Consolas, monospace" font-size="12.5" fill="#ffffff" font-weight="600" text-anchor="middle">main</text>
<line x1="430" y1="54" x2="430" y2="68" stroke="#2563eb" stroke-width="2" marker-end="url(#ah-2563eb)"/>
<circle cx="330" cy="210" r="17" fill="#db2777" stroke="#db2777" stroke-width="2"/><text x="330" y="215" font-family="ui-monospace, 'SF Mono', Menlo, Consolas, monospace" font-size="13" fill="#ffffff" font-weight="700" text-anchor="middle">D</text>
<circle cx="490" cy="210" r="17" fill="#db2777" stroke="#db2777" stroke-width="2"/><text x="490" y="215" font-family="ui-monospace, 'SF Mono', Menlo, Consolas, monospace" font-size="13" fill="#ffffff" font-weight="700" text-anchor="middle">E</text>
<line x1="471" y1="210" x2="353" y2="210" stroke="#94a3b8" stroke-width="2" marker-end="url(#ah-94a3b8)"/>
<line x1="322" y1="194" x2="278.8944271909999" y2="107.78885438199983" stroke="#94a3b8" stroke-width="2" marker-end="url(#ah-94a3b8)"/>
<rect x="450.3" y="243" width="79.39999999999999" height="24" rx="12" fill="#db2777"/><text x="490" y="260" font-family="ui-monospace, 'SF Mono', Menlo, Consolas, monospace" font-size="12.5" fill="#ffffff" font-weight="600" text-anchor="middle">feature</text>
<line x1="490" y1="243" x2="490" y2="232" stroke="#db2777" stroke-width="2" marker-end="url(#ah-db2777)"/>
<rect x="572.6" y="243" width="54.8" height="24" rx="12" fill="#0f172a"/><text x="600" y="260" font-family="ui-monospace, 'SF Mono', Menlo, Consolas, monospace" font-size="12.5" fill="#ffffff" font-weight="600" text-anchor="middle">HEAD</text>
<line x1="572" y1="255" x2="551" y2="255" stroke="#0f172a" stroke-width="2" marker-end="url(#ah-0f172a)"/>
<text x="40" y="190" font-family="system-ui, -apple-system, 'Segoe UI', Roboto, sans-serif" font-size="12.5" fill="#64748b" font-weight="400" text-anchor="start">new commits on feature</text>
<text x="40" y="210" font-family="system-ui, -apple-system, 'Segoe UI', Roboto, sans-serif" font-size="12.5" fill="#64748b" font-weight="400" text-anchor="start">do not touch main</text>
</svg>
